# This file uses meters as units for non-parametric coordinates.

mtllib Ceiling Tile_Bare_3Lx6W.mtl
g default
v -600.000000 400.000000 299.999990
v -600.000000 400.000000 -0.000010
v 0.000000 400.000000 299.999990
v 0.000000 400.000000 -0.000010
v -300.000000 421.115540 299.999990
v -300.000000 421.115540 -0.000010
v -600.000000 400.000000 149.999990
v -300.000000 421.115540 149.999990
v 0.000000 400.000000 149.999990
v -61.199875 401.055664 299.999990
v -60.361778 400.480713 299.999990
v -59.410847 400.121918 299.999990
v -58.401821 400.000000 299.999990
v -58.401821 400.000000 149.999990
v -59.410847 400.121918 149.999990
v -60.361778 400.480713 149.999990
v -61.199875 401.055664 149.999990
v -58.401821 400.000000 -0.000010
v -59.410847 400.121918 -0.000010
v -60.361778 400.480713 -0.000010
v -61.199875 401.055664 -0.000010
v -541.598145 400.000000 299.999990
v -540.589111 400.121918 299.999990
v -539.638184 400.480713 299.999990
v -538.800110 401.055664 299.999990
v -538.800110 401.055664 149.999990
v -539.638184 400.480713 149.999990
v -540.589111 400.121918 149.999990
v -541.598145 400.000000 149.999990
v -538.800110 401.055664 -0.000010
v -539.638184 400.480713 -0.000010
v -540.589111 400.121918 -0.000010
v -541.598145 400.000000 -0.000010
v -85.518272 421.115540 299.999990
v -84.559692 420.999725 299.999990
v -83.656303 420.658875 299.999990
v -82.860107 420.112671 299.999990
v -85.518272 421.115540 149.999990
v -84.559692 420.999725 149.999990
v -83.656303 420.658875 149.999990
v -82.860107 420.112671 149.999990
v -82.860107 420.112671 -0.000010
v -83.656303 420.658875 -0.000010
v -84.559692 420.999725 -0.000010
v -85.518272 421.115540 -0.000010
v -517.139893 420.112671 299.999990
v -516.343689 420.658875 299.999990
v -515.440308 420.999725 299.999990
v -514.481750 421.115540 299.999990
v -514.481750 421.115540 149.999990
v -515.440308 420.999725 149.999990
v -516.343689 420.658875 149.999990
v -517.139893 420.112671 149.999990
v -514.481750 421.115540 -0.000010
v -515.440308 420.999725 -0.000010
v -516.343689 420.658875 -0.000010
v -517.139893 420.112671 -0.000010
v -208.560516 420.261292 299.999990
v -207.440613 420.731842 299.999990
v -206.260300 421.018982 299.999990
v -205.049423 421.115509 299.999990
v -205.049423 421.115509 149.999990
v -206.260300 421.018982 149.999990
v -207.440613 420.731842 149.999990
v -208.560516 420.261292 149.999990
v -205.049423 421.115509 -0.000010
v -206.260300 421.018982 -0.000010
v -207.440613 420.731842 -0.000010
v -208.560516 420.261292 -0.000010
v -394.950623 421.115540 299.999990
v -393.739716 421.019043 299.999990
v -392.559418 420.731842 299.999990
v -391.439514 420.261322 299.999990
v -394.950623 421.115540 149.999990
v -393.739716 421.019043 149.999990
v -392.559418 420.731842 149.999990
v -391.439514 420.261322 149.999990
v -391.439514 420.261322 -0.000010
v -392.559418 420.731842 -0.000010
v -393.739716 421.019043 -0.000010
v -394.950623 421.115540 -0.000010
v -240.803009 404.029572 149.999990
v -240.244370 404.074097 149.999990
v -239.699844 404.206573 149.999990
v -239.183182 404.423676 149.999990
v -240.803009 404.029572 299.999990
v -240.244370 404.074097 299.999990
v -239.699844 404.206573 299.999990
v -239.183182 404.423676 299.999990
v -239.183182 404.423676 -0.000010
v -239.699844 404.206573 -0.000010
v -240.244370 404.074097 -0.000010
v -240.803009 404.029572 -0.000010
v -360.816864 404.423676 299.999990
v -360.300201 404.206604 299.999990
v -359.755676 404.074158 299.999990
v -359.197052 404.029602 299.999990
v -359.197052 404.029602 149.999990
v -359.755676 404.074158 149.999990
v -360.300201 404.206604 149.999990
v -360.816864 404.423676 149.999990
v -359.197052 404.029602 -0.000010
v -359.755676 404.074158 -0.000010
v -360.300201 404.206604 -0.000010
v -360.816864 404.423676 -0.000010
v -257.530762 421.115540 299.999990
v -257.317200 421.058319 299.999990
v -257.160889 420.901978 299.999990
v -257.103668 420.688446 299.999990
v -257.530762 421.115540 149.999990
v -257.317200 421.058319 149.999990
v -257.160889 420.901978 149.999990
v -257.103668 420.688446 149.999990
v -257.103668 420.688446 -0.000010
v -257.160889 420.901978 -0.000010
v -257.317200 421.058319 -0.000010
v -257.530762 421.115540 -0.000010
v -342.896362 420.688446 299.999990
v -342.839142 420.901978 299.999990
v -342.682800 421.058319 299.999990
v -342.469269 421.115540 299.999990
v -342.469269 421.115540 149.999990
v -342.682800 421.058319 149.999990
v -342.839142 420.901978 149.999990
v -342.896362 420.688446 149.999990
v -342.469269 421.115540 -0.000010
v -342.682800 421.058319 -0.000010
v -342.839142 420.901978 -0.000010
v -342.896362 420.688446 -0.000010
v -257.103668 404.456696 299.999990
v -257.046448 404.243195 299.999990
v -256.890137 404.086823 299.999990
v -256.676575 404.029602 299.999990
v -257.103668 404.456696 149.999990
v -257.046448 404.243195 149.999990
v -256.890137 404.086823 149.999990
v -256.676575 404.029602 149.999990
v -256.676575 404.029602 -0.000010
v -256.890137 404.086823 -0.000010
v -257.046448 404.243195 -0.000010
v -257.103668 404.456696 -0.000010
v -342.896362 404.456696 149.999990
v -342.953583 404.243195 149.999990
v -343.109924 404.086823 149.999990
v -343.323456 404.029602 149.999990
v -343.323456 404.029602 299.999990
v -343.109924 404.086823 299.999990
v -342.953583 404.243195 299.999990
v -342.896362 404.456696 299.999990
v -342.896362 404.456696 -0.000010
v -342.953583 404.243195 -0.000010
v -343.109924 404.086823 -0.000010
v -343.323456 404.029602 -0.000010
vt 0.793666 0.483848
vt 0.792082 0.483848
vt 0.792068 0.250000
vt 0.793653 0.250000
vt 0.790497 0.483848
vt 0.790484 0.250000
vt 0.788913 0.483848
vt 0.788899 0.250001
vt 0.110261 0.483859
vt 0.108677 0.483858
vt 0.108712 0.250011
vt 0.110297 0.250011
vt 0.107092 0.483858
vt 0.107128 0.250010
vt 0.105508 0.483858
vt 0.105543 0.250010
vt 0.884700 0.249995
vt 0.884714 0.483843
vt 0.793639 0.016153
vt 0.884687 0.016147
vt 0.014460 0.483844
vt 0.014496 0.249996
vt 0.105579 0.016162
vt 0.014531 0.016149
vt 0.788886 0.016153
vt 0.790470 0.016153
vt 0.792055 0.016153
vt 0.107163 0.016163
vt 0.108748 0.016163
vt 0.110332 0.016163
vt 0.743922 0.250003
vt 0.742417 0.250003
vt 0.742403 0.016156
vt 0.743909 0.016155
vt 0.740912 0.250003
vt 0.740898 0.016156
vt 0.739406 0.250003
vt 0.739393 0.016156
vt 0.159754 0.483866
vt 0.158249 0.483866
vt 0.158284 0.250018
vt 0.159790 0.250018
vt 0.156744 0.483866
vt 0.156779 0.250018
vt 0.155238 0.483865
vt 0.155274 0.250018
vt 0.743936 0.483851
vt 0.155309 0.016170
vt 0.742430 0.483851
vt 0.740925 0.483851
vt 0.739420 0.483851
vt 0.156814 0.016170
vt 0.158320 0.016170
vt 0.159825 0.016171
vt 0.553073 0.483862
vt 0.551179 0.483862
vt 0.551165 0.250014
vt 0.553059 0.250014
vt 0.549285 0.483862
vt 0.549272 0.250014
vt 0.547391 0.483862
vt 0.547378 0.250014
vt 0.351818 0.250047
vt 0.349924 0.250047
vt 0.349960 0.016199
vt 0.351853 0.016200
vt 0.348030 0.250047
vt 0.348066 0.016199
vt 0.346137 0.250047
vt 0.346172 0.016199
vt 0.553046 0.016166
vt 0.346101 0.483894
vt 0.547364 0.016167
vt 0.549258 0.016167
vt 0.551152 0.016167
vt 0.351783 0.483895
vt 0.349889 0.483895
vt 0.347995 0.483894
vt 0.493631 0.250017
vt 0.492757 0.250018
vt 0.492744 0.016170
vt 0.493617 0.016170
vt 0.491883 0.250018
vt 0.491870 0.016170
vt 0.491010 0.250018
vt 0.490996 0.016170
vt 0.408151 0.483904
vt 0.407277 0.483903
vt 0.407312 0.250056
vt 0.408186 0.250056
vt 0.406403 0.483903
vt 0.406439 0.250056
vt 0.405530 0.483903
vt 0.405565 0.250056
vt 0.493644 0.483865
vt 0.405600 0.016208
vt 0.492770 0.483865
vt 0.491897 0.483865
vt 0.491023 0.483865
vt 0.406474 0.016208
vt 0.407348 0.016208
vt 0.408222 0.016208
vt 0.926119 0.249994
vt 0.926463 0.249994
vt 0.926474 0.483842
vt 0.926129 0.483842
vt 0.926808 0.249994
vt 0.926819 0.483842
vt 0.137705 0.750004
vt 0.137361 0.750004
vt 0.137358 0.516157
vt 0.137703 0.516157
vt 0.004946 0.983854
vt 0.004601 0.983854
vt 0.004598 0.750006
vt 0.004943 0.750006
vt 0.956416 0.483842
vt 0.956071 0.483842
vt 0.956063 0.249994
vt 0.956408 0.249994
vt 0.955727 0.483842
vt 0.955719 0.249994
vt 0.466263 0.250019
vt 0.465918 0.250019
vt 0.465905 0.016171
vt 0.466250 0.016171
vt 0.900124 0.249996
vt 0.900469 0.249996
vt 0.900480 0.483843
vt 0.900135 0.483843
vt 0.900814 0.249996
vt 0.900824 0.483843
vt 0.432933 0.250060
vt 0.433277 0.250060
vt 0.433242 0.483907
vt 0.432897 0.483907
vt 0.929724 0.249995
vt 0.930069 0.249995
vt 0.930077 0.483842
vt 0.929732 0.483843
vt 0.930414 0.249995
vt 0.930422 0.483842
vt 0.071152 0.750005
vt 0.071154 0.983853
vt 0.004940 0.516158
vt 0.071149 0.516157
vt 0.137363 0.983852
vt 0.926108 0.016147
vt 0.900803 0.016148
vt 0.955711 0.016146
vt 0.930406 0.016147
vt 0.466276 0.483867
vt 0.432968 0.016212
vt 0.926453 0.016147
vt 0.926797 0.016147
vt 0.137708 0.983852
vt 0.956056 0.016146
vt 0.004595 0.516158
vt 0.956400 0.016146
vt 0.465932 0.483867
vt 0.900114 0.016148
vt 0.900458 0.016148
vt 0.433313 0.016212
vt 0.930061 0.016147
vt 0.929717 0.016147
vn -0.002052 -0.999998 0.000000
vn -0.238207 -0.971214 0.000000
vn -0.238207 -0.971214 0.000000
vn -0.002052 -0.999998 0.000000
vn -0.462698 -0.886516 0.000000
vn -0.462698 -0.886516 0.000000
vn -0.657478 -0.753474 0.000000
vn -0.657478 -0.753474 0.000000
vn 0.657479 -0.753473 0.000000
vn 0.462702 -0.886514 0.000000
vn 0.462702 -0.886514 0.000000
vn 0.657479 -0.753473 0.000000
vn 0.238208 -0.971214 0.000000
vn 0.238208 -0.971214 0.000000
vn 0.002052 -0.999998 0.000000
vn 0.002052 -0.999998 0.000000
vn 0.000000 -1.000000 0.000000
vn 0.000000 -1.000000 0.000000
vn -0.002052 -0.999998 0.000000
vn 0.000000 -1.000000 0.000000
vn 0.000000 -1.000000 0.000000
vn 0.000000 -1.000000 0.000000
vn 0.002052 -0.999998 0.000000
vn 0.000000 -1.000000 0.000000
vn -0.657478 -0.753474 0.000000
vn -0.462698 -0.886516 0.000000
vn -0.238207 -0.971214 0.000000
vn 0.238208 -0.971214 0.000000
vn 0.462702 -0.886514 0.000000
vn 0.657479 -0.753473 0.000000
vn -0.657627 -0.753344 0.000000
vn -0.462694 -0.886518 0.000000
vn -0.462694 -0.886518 0.000000
vn -0.657627 -0.753344 0.000000
vn -0.238199 -0.971216 0.000000
vn -0.238199 -0.971216 0.000000
vn -0.000961 -1.000000 0.000000
vn -0.000961 -1.000000 0.000000
vn 0.000961 -1.000000 0.000000
vn 0.238205 -0.971215 0.000000
vn 0.238205 -0.971215 0.000000
vn 0.000961 -1.000000 0.000000
vn 0.462695 -0.886517 0.000000
vn 0.462695 -0.886517 0.000000
vn 0.657627 -0.753343 0.000000
vn 0.657627 -0.753343 0.000000
vn -0.657627 -0.753344 0.000000
vn 0.657627 -0.753343 0.000000
vn -0.462694 -0.886518 0.000000
vn -0.238199 -0.971216 0.000000
vn -0.000961 -1.000000 0.000000
vn 0.462695 -0.886517 0.000000
vn 0.238205 -0.971215 0.000000
vn 0.000961 -1.000000 0.000000
vn 0.000800 -1.000000 0.000000
vn 0.158424 -0.987371 0.000000
vn 0.158424 -0.987371 0.000000
vn 0.000800 -1.000000 0.000000
vn 0.312863 -0.949798 0.000000
vn 0.312863 -0.949798 0.000000
vn 0.456981 -0.889477 0.000000
vn 0.456981 -0.889477 0.000000
vn -0.456981 -0.889477 0.000000
vn -0.312876 -0.949794 0.000000
vn -0.312876 -0.949794 0.000000
vn -0.456981 -0.889477 0.000000
vn -0.158436 -0.987369 0.000000
vn -0.158436 -0.987369 0.000000
vn -0.000799 -1.000000 0.000000
vn -0.000799 -1.000000 0.000000
vn 0.000800 -1.000000 0.000000
vn -0.000799 -1.000000 0.000000
vn 0.456981 -0.889477 0.000000
vn 0.312863 -0.949798 0.000000
vn 0.158424 -0.987371 0.000000
vn -0.456981 -0.889477 0.000000
vn -0.312876 -0.949794 0.000000
vn -0.158436 -0.987369 0.000000
vn 0.458255 -0.888821 0.000000
vn 0.312880 -0.949793 0.000000
vn 0.312880 -0.949793 0.000000
vn 0.458255 -0.888821 0.000000
vn 0.158421 -0.987372 0.000000
vn 0.158421 -0.987372 0.000000
vn 0.002708 -0.999996 0.000000
vn 0.002708 -0.999996 0.000000
vn -0.002711 -0.999996 0.000000
vn -0.158425 -0.987371 0.000000
vn -0.158425 -0.987371 0.000000
vn -0.002711 -0.999996 0.000000
vn -0.312831 -0.949809 0.000000
vn -0.312831 -0.949809 0.000000
vn -0.458256 -0.888820 0.000000
vn -0.458256 -0.888820 0.000000
vn 0.458255 -0.888821 0.000000
vn -0.458256 -0.888820 0.000000
vn 0.312880 -0.949793 0.000000
vn 0.158421 -0.987372 0.000000
vn 0.002708 -0.999996 0.000000
vn -0.312831 -0.949809 0.000000
vn -0.158425 -0.987371 0.000000
vn -0.002711 -0.999996 0.000000
vn -0.999994 -0.003479 0.000000
vn -0.866057 -0.499946 0.000000
vn -0.866057 -0.499946 0.000000
vn -0.999994 -0.003479 0.000000
vn -0.707196 -0.707017 0.000000
vn -0.707196 -0.707017 0.000000
vn -0.258799 -0.965931 0.000000
vn -0.001341 -0.999999 0.000000
vn -0.001341 -0.999999 0.000000
vn -0.258799 -0.965931 0.000000
vn 0.001341 -0.999999 0.000000
vn 0.500031 -0.866008 0.000000
vn 0.500031 -0.866008 0.000000
vn 0.001341 -0.999999 0.000000
vn 0.866030 -0.499992 0.000000
vn 0.866030 -0.499992 0.000000
vn 0.999994 -0.003479 0.000000
vn 0.999994 -0.003479 0.000000
vn -0.003559 -0.999994 0.000000
vn -0.258799 -0.965931 0.000000
vn -0.258799 -0.965931 0.000000
vn -0.003559 -0.999994 0.000000
vn -0.707206 -0.707007 0.000000
vn -0.866030 -0.499992 0.000000
vn -0.866030 -0.499992 0.000000
vn -0.707206 -0.707007 0.000000
vn -0.999994 -0.003479 0.000000
vn -0.999994 -0.003479 0.000000
vn 0.003557 -0.999994 0.000000
vn 0.500085 -0.865977 0.000000
vn 0.500085 -0.865977 0.000000
vn 0.003557 -0.999994 0.000000
vn 0.866004 -0.500038 0.000000
vn 0.866004 -0.500038 0.000000
vn 0.999994 -0.003481 0.000000
vn 0.999994 -0.003481 0.000000
vn 0.000000 -1.000000 0.000000
vn 0.000000 -1.000000 0.000000
vn 0.001341 -0.999999 0.000000
vn 0.000000 -1.000000 0.000000
vn -0.001341 -0.999999 0.000000
vn -0.999994 -0.003479 0.000000
vn -0.999994 -0.003479 0.000000
vn 0.999994 -0.003479 0.000000
vn 0.999994 -0.003481 0.000000
vn -0.003559 -0.999994 0.000000
vn 0.003557 -0.999994 0.000000
vn -0.866057 -0.499946 0.000000
vn -0.707196 -0.707017 0.000000
vn -0.258799 -0.965931 0.000000
vn 0.866030 -0.499992 0.000000
vn 0.500031 -0.866008 0.000000
vn -0.258799 -0.965931 0.000000
vn -0.707206 -0.707007 0.000000
vn -0.866030 -0.499992 0.000000
vn 0.500085 -0.865977 0.000000
vn 0.866004 -0.500038 0.000000
s 1
g Ceiling_Tile_Empty
usemtl aiStandardSurface6SG
f 13/1/1 12/2/2 15/3/3 14/4/4
f 12/2/2 11/5/5 16/6/6 15/3/3
f 11/5/5 10/7/7 17/8/8 16/6/6
s 2
f 25/9/9 24/10/10 27/11/11 26/12/12
f 24/10/10 23/13/13 28/14/14 27/11/11
f 23/13/13 22/15/15 29/16/16 28/14/14
s 1
f 13/1/1 14/4/4 9/17/17 3/18/18
f 9/17/17 14/4/4 18/19/19 4/20/20
s 2
f 1/21/21 7/22/22 29/16/16 22/15/15
f 33/23/23 29/16/16 7/22/22 2/24/24
s 1
f 16/6/6 17/8/8 21/25/25 20/26/26
f 14/4/4 15/3/3 19/27/27 18/19/19
f 15/3/3 16/6/6 20/26/26 19/27/27
s 2
f 28/14/14 29/16/16 33/23/23 32/28/28
f 26/12/12 27/11/11 31/29/29 30/30/30
f 27/11/11 28/14/14 32/28/28 31/29/29
s 1
f 41/31/31 40/32/32 43/33/33 42/34/34
f 40/32/32 39/35/35 44/36/36 43/33/33
f 39/35/35 38/37/37 45/38/38 44/36/36
s 2
f 49/39/39 48/40/40 51/41/41 50/42/42
f 48/40/40 47/43/43 52/44/44 51/41/41
f 47/43/43 46/45/45 53/46/46 52/44/44
s 1
f 37/47/47 41/31/31 17/8/8 10/7/7
f 21/25/25 17/8/8 41/31/31 42/34/34
s 2
f 25/9/9 26/12/12 53/46/46 46/45/45
f 57/48/48 53/46/46 26/12/12 30/30/30
s 1
f 37/47/47 36/49/49 40/32/32 41/31/31
f 36/49/49 35/50/50 39/35/35 40/32/32
f 35/50/50 34/51/51 38/37/37 39/35/35
s 2
f 52/44/44 53/46/46 57/48/48 56/52/52
f 50/42/42 51/41/41 55/53/53 54/54/54
f 51/41/41 52/44/44 56/52/52 55/53/53
s 1
f 61/55/55 60/56/56 63/57/57 62/58/58
f 60/56/56 59/59/59 64/60/60 63/57/57
f 59/59/59 58/61/61 65/62/62 64/60/60
s 2
f 77/63/63 76/64/64 79/65/65 78/66/66
f 76/64/64 75/67/67 80/68/68 79/65/65
f 75/67/67 74/69/69 81/70/70 80/68/68
s 1
f 61/55/55 62/58/58 38/37/37 34/51/51
f 45/38/38 38/37/37 62/58/58 66/71/71
s 2
f 49/39/39 50/42/42 74/69/69 70/72/72
f 81/70/70 74/69/69 50/42/42 54/54/54
s 1
f 64/60/60 65/62/62 69/73/73 68/74/74
f 62/58/58 63/57/57 67/75/75 66/71/71
f 63/57/57 64/60/60 68/74/74 67/75/75
s 2
f 73/76/76 72/77/77 76/64/64 77/63/63
f 72/77/77 71/78/78 75/67/67 76/64/64
f 71/78/78 70/72/72 74/69/69 75/67/67
s 1
f 85/79/79 84/80/80 91/81/81 90/82/82
f 84/80/80 83/83/83 92/84/84 91/81/81
f 83/83/83 82/85/85 93/86/86 92/84/84
s 2
f 97/87/87 96/88/88 99/89/89 98/90/90
f 96/88/88 95/91/91 100/92/92 99/89/89
f 95/91/91 94/93/93 101/94/94 100/92/92
s 1
f 65/62/62 58/61/61 89/95/95 85/79/79
f 69/73/73 65/62/62 85/79/79 90/82/82
s 2
f 73/76/76 77/63/63 101/94/94 94/93/93
f 77/63/63 78/66/66 105/96/96 101/94/94
s 1
f 84/80/80 85/79/79 89/95/95 88/97/97
f 82/85/85 83/83/83 87/98/98 86/99/99
f 83/83/83 84/80/80 88/97/97 87/98/98
s 2
f 100/92/92 101/94/94 105/96/96 104/100/100
f 98/90/90 99/89/89 103/101/101 102/102/102
f 99/89/89 100/92/92 104/100/100 103/101/101
s 9
f 113/103/103 112/104/104 115/105/105 114/106/106
f 112/104/104 111/107/107 116/108/108 115/105/105
s 2
f 111/109/109 110/110/110 117/111/111 116/112/112
f 121/113/113 120/114/114 123/115/115 122/116/116
f 120/117/114 119/118/117 124/119/118 123/120/115
f 119/118/117 118/121/119 125/122/120 124/119/118
s 1
f 137/123/121 136/124/122 139/125/123 138/126/124
s 9
f 136/127/125 135/128/126 140/129/127 139/130/128
f 135/128/126 134/131/129 141/132/130 140/129/127
s 2
f 145/133/131 144/134/132 147/135/133 146/136/134
f 144/137/132 143/138/135 148/139/136 147/140/133
f 143/138/135 142/141/137 149/142/138 148/139/136
f 121/113/113 122/116/116 8/143/139 5/144/140
f 8/143/139 122/116/116 126/145/141 6/146/142
f 5/144/140 8/143/139 110/110/110 106/147/143
f 117/111/111 110/110/110 8/143/139 6/146/142
s 9
f 109/148/144 113/103/103 134/131/129 130/149/145
f 113/103/103 114/106/106 141/132/130 134/131/129
s 2
f 125/122/120 118/121/119 149/142/138 142/141/137
f 129/150/146 125/122/120 142/141/137 150/151/147
s 1
f 133/152/148 137/123/121 82/85/85 86/99/99
f 93/86/86 82/85/85 137/123/121 138/126/124
s 2
f 97/87/87 98/90/90 145/133/131 146/136/134
f 153/153/149 145/133/131 98/90/90 102/102/102
s 9
f 109/148/144 108/154/150 112/104/104 113/103/103
f 108/154/150 107/155/151 111/107/107 112/104/104
s 2
f 107/156/152 106/147/143 110/110/110 111/109/109
f 124/119/118 125/122/120 129/150/146 128/157/153
f 122/116/116 123/115/115 127/158/154 126/145/141
f 123/120/115 124/119/118 128/157/153 127/159/154
s 1
f 133/152/148 132/160/155 136/124/122 137/123/121
s 9
f 132/161/156 131/162/157 135/128/126 136/127/125
f 131/162/157 130/149/145 134/131/129 135/128/126
s 2
f 144/134/132 145/133/131 153/153/149 152/163/158
f 142/141/137 143/138/135 151/164/159 150/151/147
f 143/138/135 144/137/132 152/165/158 151/164/159
